<?xml version="1.0" encoding="UTF-8" standalone="no"?>
<svg
   width="21"
   height="20"
   fill="none"
   viewBox="0 0 21 20"
   version="1.1"
   id="svg3"
   sodipodi:docname="icon-add-to-cart-white.svg"
   inkscape:version="1.3.1 (9b9bdc1480, 2023-11-25, custom)"
   xmlns:inkscape="http://www.inkscape.org/namespaces/inkscape"
   xmlns:sodipodi="http://sodipodi.sourceforge.net/DTD/sodipodi-0.dtd"
   xmlns="http://www.w3.org/2000/svg"
   xmlns:svg="http://www.w3.org/2000/svg">
  <sodipodi:namedview
     id="namedview3"
     pagecolor="#ffffff"
     bordercolor="#000000"
     borderopacity="0.25"
     inkscape:showpageshadow="2"
     inkscape:pageopacity="0.0"
     inkscape:pagecheckerboard="0"
     inkscape:deskcolor="#d1d1d1"
     showgrid="false"
     inkscape:zoom="40.4"
     inkscape:cx="10.507426"
     inkscape:cy="10"
     inkscape:window-width="1854"
     inkscape:window-height="1011"
     inkscape:window-x="66"
     inkscape:window-y="32"
     inkscape:window-maximized="1"
     inkscape:current-layer="g2" />
  <g
     fill="#C73B0F"
     clip-path="url(#a)"
     id="g2">
    <path
       d="m 8.1520175,18.333905 a 1.25,1.25 0 1 0 0,-2.5 1.25,1.25 0 0 0 0,2.5 z m 8.7509995,0 a 1.25,1.25 0 1 0 0,-2.5 1.25,1.25 0 0 0 0,2.5 z M 5.0150175,1.3359049 a 0.625,0.625 0 0 0 -0.613,-0.50199999 h -2.5 V 2.0839049 h 1.988 l 2.4,11.9980001 a 0.625,0.625 0 0 0 0.612,0.502 H 18.152017 v -1.25 H 7.4160175 l -0.5,-2.5 H 18.154017 a 0.625,0.625 0 0 0 0.61,-0.49 l 1.417,-6.3850001 h -1.28 l -1.249,5.625 H 6.6650175 Z"
       id="path1" />
    <path
       d="M11.584 3.75v-2.5h-1.25v2.5h-2.5V5h2.5v2.5h1.25V5h2.5V3.75h-2.5Z"
       id="path2" />
    <path
       style="fill:#f2f2f2;stroke-width:0.0247525"
       d="M 6.7008678,14.535724 C 6.6005287,14.503572 6.4099401,14.338943 6.3589859,14.240408 6.3381582,14.200131 5.7818458,11.469662 5.1227364,8.1726978 4.4636272,4.8757339 3.9183295,2.1531559 3.9109638,2.1225248 L 3.8975717,2.0668317 H 2.9079443 1.9183168 V 1.460396 0.8539604 h 1.312151 c 1.2806448,0 1.3148015,0.001246 1.4225416,0.0518897 0.137996,0.0648658 0.2660141,0.2044094 0.3179144,0.3465362 0.021892,0.05995 0.4094133,1.9607944 0.8611586,4.2240988 l 0.8213555,4.1150991 h 5.5025631 5.502563 l 0.02134,-0.080446 c 0.01174,-0.044245 0.293511,-1.3084267 0.626163,-2.8092928 l 0.604822,-2.7288473 0.627684,-1.131e-4 0.627683,-1.131e-4 -0.01368,0.055693 c -0.0075,0.030631 -0.326918,1.4702971 -0.709769,3.1992575 -0.382851,1.7289604 -0.718612,3.1908746 -0.746134,3.2486966 -0.02752,0.05782 -0.09591,0.144398 -0.151982,0.192389 -0.20149,0.172469 0.249661,0.1604 -5.99599,0.1604 H 6.9009532 l 0.2512139,1.256188 0.2512138,1.256188 5.3639041,0.0062 5.363903,0.0062 v 0.606379 0.60638 l -5.674505,-0.0025 c -3.8973186,-0.0017 -5.6999701,-0.01069 -5.7558152,-0.02858 z"
       id="path4" />
    <path
       style="fill:#f2f2f2;stroke-width:0.0247525"
       d="m 10.334158,6.2376238 v -1.25 h -1.2499996 -1.25 V 4.3688119 3.75 h 1.25 1.2499996 V 2.5 1.25 h 0.618812 0.618812 V 2.5 3.75 h 1.25 1.25 v 0.6188119 0.6188119 h -1.25 -1.25 v 1.25 1.25 H 10.95297 10.334158 Z"
       id="path5" />
    <path
       style="fill:#f2f2f2;stroke-width:0.0247525"
       d="M 7.9348365,18.302499 C 7.4744455,18.221392 7.0787964,17.845821 6.9556406,17.372994 6.7601201,16.62234 7.3597013,15.85396 8.1409712,15.85396 c 0.3545054,0 0.6239775,0.113368 0.881756,0.370956 0.1859962,0.18586 0.281082,0.363439 0.3400129,0.635 0.1252621,0.577223 -0.2549393,1.216333 -0.8298861,1.395021 -0.1937499,0.06022 -0.422789,0.07843 -0.5980175,0.04756 z"
       id="path6" />
    <path
       style="fill:#f2f2f2;stroke-width:0.0247525"
       d="m 16.654999,18.292231 c -0.633157,-0.137694 -1.062795,-0.749366 -0.972749,-1.384895 0.06713,-0.473827 0.441935,-0.895399 0.902774,-1.015432 0.42605,-0.110972 0.874071,0.01105 1.186538,0.323171 0.24589,0.245616 0.35787,0.520118 0.359021,0.88009 0.0019,0.591422 -0.447982,1.114549 -1.038999,1.20818 -0.199059,0.03154 -0.245961,0.03034 -0.436585,-0.01111 z"
       id="path7" />
    <path
       style="fill:#f2f2f2;stroke-width:0.0247525"
       d=""
       id="path8" />
    <path
       style="fill:#f2f2f2;stroke-width:0.0247525"
       d=""
       id="path9" />
    <path
       style="fill:#f2f2f2;stroke-width:0.0247525"
       d=""
       id="path10" />
    <path
       style="fill:#f2f2f2;stroke-width:0.0247525"
       d=""
       id="path11" />
    <path
       style="fill:#f2f2f2;stroke-width:0.0247525"
       d=""
       id="path12" />
    <path
       style="fill:#f2f2f2;stroke-width:0.0247525"
       d=""
       id="path13" />
    <path
       style="fill:#f2f2f2;stroke-width:0.0247525"
       d=""
       id="path14" />
  </g>
  <defs
     id="defs3">
    <clipPath
       id="a">
      <path
         fill="#fff"
         d="M.333 0h20v20h-20z"
         id="path3" />
    </clipPath>
  </defs>
</svg>
